<?xml version="1.0" encoding="iso-8859-1"?>
<!-- Generator: Adobe Illustrator 19.1.0, SVG Export Plug-In . SVG Version: 6.00 Build 0)  -->
<svg version="1.1" id="Capa_1" xmlns="http://www.w3.org/2000/svg" xmlns:xlink="http://www.w3.org/1999/xlink" x="0px" y="0px"
	 viewBox="0 0 439.801 439.801" style="enable-background:new 0 0 439.801 439.801;" xml:space="preserve">
<g>
	<rect x="173.683" y="223.024" style="fill:#4D4D4D;" width="5.997" height="3.901"/>
	<path style="fill:#A6D9FF;" d="M187.157,94.841l12.424,4.986l-0.849-16.096l-4.742-2.281
		C193.957,81.535,187.157,94.841,187.157,94.841z"/>
	<path style="fill:#A6D9FF;" d="M184.193,110.24l5.984,84.851c0.044,0.624-0.147,1.241-0.536,1.73l-10.464,13.177v8.026h22.936
		l10.023-45.249v-32.908c0-0.058,0.123-0.777,0.139-0.822l14.45-41.483c-3.187-2.856-7.592-5.418-13.68-6.997
		c-0.157-0.041-9.176-4.361-9.176-4.361l0.911,17.271c0.045,0.853-0.348,1.669-1.042,2.165c-0.431,0.308-0.941,0.467-1.455,0.467
		c-0.314,0-0.63-0.059-0.931-0.18l-12.394-4.974L184.193,110.24z"/>
	<polygon style="fill:#999999;" points="176.681,205.1 185.121,194.473 179.32,112.219 174.043,112.219 168.243,194.473 	"/>
	<polygon style="fill:#999999;" points="200.142,226.925 201.006,223.024 184.68,223.024 184.68,226.925 	"/>
	<path style="fill:#C69C6D;" d="M193.624,22.716c-0.069-0.065-0.128-0.11-0.171-0.139c-0.347,0.089-1.116,0.504-1.744,0.844
		c-2.599,1.405-6.947,3.755-15.022,3.757c0,0-0.001,0-0.001,0c-0.002,0-0.003,0-0.004,0c-0.001,0-0.003,0-0.004,0
		c-0.001,0-0.002,0-0.002,0c-8.073-0.002-12.422-2.353-15.021-3.757c-0.626-0.338-1.392-0.752-1.741-0.843
		c-0.051,0.037-0.13,0.102-0.237,0.209c-0.838,1.208-1.574,8.189-1.062,15.197h36.136C195.261,30.977,194.519,23.99,193.624,22.716z
		"/>
	<polygon style="fill:#999999;" points="180.123,107.219 184.299,99.082 183.198,98.64 170.224,98.64 169.101,99.152 
		173.24,107.219 	"/>
	<path style="fill:#C69C6D;" d="M182.154,93.64l7.018-13.682v-3.99c-3.456,1.85-7.584,2.73-12.483,2.732c-0.001,0-0.001,0-0.002,0
		c-0.002,0-0.003,0-0.004,0c-0.001,0-0.003,0-0.004,0c-0.001,0-0.001,0-0.002,0c-4.899-0.001-9.027-0.882-12.483-2.732v3.99
		l7.018,13.682H182.154z"/>
	<path style="fill:#D8D5D4;" d="M183.301,46.108c0,2.248,2.061,4.076,4.593,4.076h5.277c2.533,0,4.594-1.828,4.594-4.076v-3.124
		h-14.464V46.108z M188.761,44.82c0.94-0.94,2.61-0.94,3.54,0c0.47,0.46,0.73,1.11,0.73,1.76c0,0.66-0.26,1.3-0.73,1.77
		c-0.46,0.47-1.11,0.73-1.77,0.73c-0.66,0-1.3-0.26-1.77-0.73c-0.46-0.46-0.73-1.11-0.73-1.77
		C188.031,45.92,188.301,45.28,188.761,44.82z"/>
	<path style="fill:#D8D5D4;" d="M95.989,94.519c0,2.118,1.724,3.841,3.842,3.841h4.717c2.118,0,3.841-1.723,3.841-3.841v-2.923
		H95.989V94.519z M100.421,93.21c0.93-0.93,2.6-0.93,3.54,0c0.46,0.47,0.73,1.11,0.73,1.77c0,0.66-0.27,1.3-0.73,1.76
		c-0.47,0.47-1.11,0.74-1.77,0.74c-0.66,0-1.31-0.27-1.77-0.74c-0.46-0.46-0.73-1.1-0.73-1.76
		C99.691,94.32,99.961,93.67,100.421,93.21z"/>
	<path style="fill:#A6D9FF;" d="M135.361,143.998l0.781-3.95l-13.316-38.23c-3.737,5.22-4.286,10.123-4.321,10.491
		c-0.008,0.08-0.021,0.171-0.036,0.251l-3.984,20.31l4.2,1.008C126.238,135.654,131.599,139.665,135.361,143.998z"/>
	<path style="fill:#E0B489;" d="M82.92,78.203c-2.543,4.09-6.804,6.824-9.903,8.393h12.815c1.356,0,2.454,1.081,2.493,2.428h2.672
		c0.039-1.347,1.137-2.428,2.493-2.428h2.735C89.138,84.623,85.147,81.297,82.92,78.203z"/>
	<polygon style="fill:#999999;" points="168.683,226.925 168.683,223.024 157.551,223.024 158.415,226.925 	"/>
	<path style="fill:#D8D5D4;" d="M160.192,50.184h5.277c2.532,0,4.593-1.828,4.593-4.076v-3.124h-14.464v3.124
		C155.598,48.355,157.658,50.184,160.192,50.184z M161.06,44.82c0.93-0.94,2.6-0.94,3.54,0c0.46,0.46,0.73,1.1,0.73,1.76
		c0,0.66-0.27,1.31-0.73,1.77c-0.47,0.47-1.11,0.73-1.77,0.73c-0.66,0-1.3-0.26-1.77-0.73c-0.46-0.46-0.73-1.11-0.73-1.77
		C160.33,45.92,160.6,45.28,161.06,44.82z"/>
	<path style="fill:#A6D9FF;" d="M141.227,139.867v13.312c1.572,3.426,2.178,5.989,2.245,6.282l12.972,58.563h17.733v-8.038
		l-10.454-13.166c-0.389-0.49-0.58-1.107-0.536-1.73l5.983-84.851l-4.624-9.012l-12.488,5.688c-0.331,0.151-0.685,0.225-1.037,0.225
		c-0.493,0-0.984-0.146-1.405-0.433c-0.722-0.49-1.136-1.322-1.091-2.194l0.926-18.291c0,0-8.976,4.3-9.133,4.341
		c-6.104,1.583-10.501,4.166-13.676,7.008l14.446,41.473C141.103,139.09,141.227,139.81,141.227,139.867z"/>
	<path style="fill:#C69C6D;" d="M176.681,73.7c9.557-0.001,16.734-3.402,20.382-19.305c-1.191,0.502-2.506,0.788-3.893,0.788h-5.277
		c-5.29,0-9.593-4.071-9.593-9.076v-3.124h-3.239v3.124c0,5.004-4.303,9.076-9.593,9.076h-5.277c-1.386,0-2.701-0.286-3.893-0.788
		C159.948,70.298,167.125,73.699,176.681,73.7z M170.204,60.816c1.175,0,2.161,0.811,2.428,1.903
		c0.486,0.299,1.873,0.819,4.049,0.819c2.176,0,3.562-0.52,4.049-0.82c0.268-1.092,1.253-1.903,2.428-1.903
		c1.381,0,2.5,1.119,2.5,2.5c0,3.075-3.692,5.223-8.978,5.223c-5.286,0-8.977-2.147-8.977-5.223
		C167.704,61.935,168.824,60.816,170.204,60.816z"/>
	<path style="fill:#754C24;" d="M156.141,19.252c2.918-2.919,5.675-1.427,7.891-0.229c2.464,1.331,5.837,3.155,12.65,3.156
		c6.813-0.001,10.187-1.825,12.65-3.156c2.215-1.198,4.973-2.688,7.89,0.229c2.723,2.723,2.916,12.556,2.53,18.732h0.513
		c1.381,0,2.5,1.119,2.5,2.5v4.713c1.673-3.541,2.996-10.499,0.83-24.028c-1.331-8.315-2.589-16.169-26.913-16.17
		c-24.325,0.001-25.582,7.855-26.913,16.17c-2.166,13.528-0.843,20.486,0.829,24.027v-4.712c0-1.381,1.119-2.5,2.5-2.5h0.513
		C153.226,31.808,153.419,21.974,156.141,19.252z"/>
	<path style="fill:#A6D9FF;" d="M159.373,81.451l-4.791,2.305l-0.856,16.905l12.536-5.71
		C166.262,94.951,159.406,81.535,159.373,81.451z"/>
	<polygon style="fill:#FFFFFF;" points="373.367,139.758 373.911,127.547 367.239,125.31 362.24,134.827 	"/>
	<path style="fill:#C69C6D;" d="M348.999,78.557c1.282,0,2.326,0.968,2.471,2.211h2.466c0.145-1.243,1.189-2.211,2.471-2.211h13.266
		c-0.601-11.049-5.288-21.983-16.969-21.983c-11.681,0-16.368,10.934-16.969,21.983H348.999z M347.518,61.022h10.369
		c1.381,0,2.5,1.119,2.5,2.5c0,1.381-1.119,2.5-2.5,2.5h-10.369c-1.381,0-2.5-1.119-2.5-2.5
		C345.018,62.142,346.137,61.022,347.518,61.022z M343.446,69.129h18.514c1.381,0,2.5,1.119,2.5,2.5c0,1.381-1.119,2.5-2.5,2.5
		h-18.514c-1.381,0-2.5-1.119-2.5-2.5C340.946,70.248,342.065,69.129,343.446,69.129z"/>
	<path style="fill:#FFFFFF;" d="M336.941,143.055c0.764,2.546,2.817,7.153,7.978,9.627l1.635-6.162l-4.125-5.896L336.941,143.055z"
		/>
	<path style="fill:#FFFFFF;" d="M368.48,143.061l-5.501-2.438l-4.125,5.896l1.641,6.184
		C365.702,150.234,367.734,145.611,368.48,143.061z"/>
	<path style="fill:#CCCCCC;" d="M377.081,78.557c1.381,0,2.5,1.119,2.5,2.5v3.298c0.9-2.583,1.153-7.127-1.298-15.049
		c-1.882-6.082-5.684-9.872-10.304-10.671c3.928,4.694,6.306,11.536,6.699,19.922H377.081z"/>
	<path style="fill:#D8D5D4;" d="M358.906,87.5c0,2.776,2.259,5.035,5.035,5.035h5.605c2.776,0,5.034-2.258,5.034-5.035v-2.509
		v-1.435h-15.675V87.5z M364.981,86.28c0.93-0.93,2.6-0.93,3.53,0c0.47,0.46,0.73,1.11,0.73,1.77c0,0.65-0.26,1.3-0.73,1.76
		c-0.46,0.47-1.11,0.74-1.77,0.74c-0.66,0-1.3-0.27-1.76-0.74c-0.47-0.46-0.74-1.11-0.74-1.76
		C364.24,87.39,364.511,86.74,364.981,86.28z"/>
	<path style="fill:#A6D9FF;" d="M218.241,145.21l4.069-18.368c0.141-0.622,2.653-11.208,11.461-18.825
		c-0.669-1.866-1.688-4.019-3.236-6.195l-13.316,38.225L218.241,145.21z"/>
	<path style="fill:#C69C6D;" d="M362.171,118.212c-2.907,1.009-6.086,1.552-9.468,1.552c-3.381,0-6.56-0.542-9.467-1.551v5.994
		l4.892,9.314h9.151l4.892-9.314V118.212z"/>
	<path style="fill:#CCCCCC;" d="M89.661,56.18c3.746,0,7.263,0.772,10.383,2.158c0.35-1.084,0.552-2.215,0.552-3.367
		c0-6.03-4.906-10.937-10.936-10.937c-6.031,0-10.938,4.906-10.938,10.937c0,1.151,0.202,2.284,0.553,3.368
		C82.397,56.952,85.915,56.18,89.661,56.18z"/>
	<path style="fill:#8C6239;" d="M351.191,148.539l-1.48,5.579c0.932,0.141,1.928,0.224,2.994,0.237
		c1.066-0.013,2.061-0.095,2.993-0.233l-1.482-5.583H351.191z"/>
	<polygon style="fill:#8C6239;" points="358.233,138.52 347.174,138.52 347.086,138.56 350.57,143.539 354.837,143.539 
		358.321,138.56 	"/>
	<path style="fill:#B7C16F;" d="M278.624,198.769c2.426-0.001,4.752-0.007,6.945-0.029l9.884-49.025
		c0.217-1.873,2.672-17.913,23.26-23.155l5.338-1.79c-2.024-5.32-7.497-15.705-20.058-18.658l-1.997-0.479
		c-1.699,8.677-10.569,14.51-23.372,15.178V198.769z"/>
	<path style="fill:#E0BC4B;" d="M263.426,84.748c-6.032-5.448-10.005-14.661-10.005-25.087v-6.889h0.003
		c-0.001-1.177,0.83-2.227,2.029-2.456c0.266-0.052,18.171-3.659,18.171-15.186c0-1.381,1.119-2.5,2.5-2.5
		c1.381,0,2.5,1.119,2.5,2.5c0,11.597,17.988,15.151,18.17,15.185c1.2,0.228,2.031,1.278,2.03,2.456h0.003v6.889
		c0,10.427-3.973,19.64-10.006,25.088v1.776c8.419-0.441,14.381-3.153,17.73-8.095c7.724-11.401-0.029-31.175-0.108-31.373
		c-0.118-0.294-0.178-0.609-0.178-0.927c0-7.689-2.316-13.811-6.884-18.197c-8.777-8.428-23.012-7.947-23.155-7.946
		c-0.034,0.001-0.066-0.006-0.1-0.006c-0.034,0-0.065,0.007-0.1,0.006c-0.139-0.004-14.443-0.446-23.181,7.967
		c-4.554,4.384-6.862,10.499-6.862,18.176c0,0.316-0.061,0.631-0.178,0.925c-0.079,0.199-7.816,20.016-0.101,31.385
		c3.349,4.936,9.31,7.645,17.722,8.085V84.748z"/>
	<path style="fill:#E5CBBD;" d="M293.827,54.748c-4.102-1.093-13.269-4.213-17.703-11.093c-4.434,6.88-13.602,10-17.703,11.093
		v4.912c0,13.938,7.941,25.278,17.703,25.278c9.762,0,17.703-11.34,17.703-25.278V54.748z M265.68,63.2c-0.66,0-1.31-0.27-1.77-0.73
		c-0.46-0.47-0.73-1.11-0.73-1.77c0-0.66,0.27-1.3,0.73-1.77c0.93-0.93,2.6-0.93,3.54,0c0.46,0.47,0.73,1.11,0.73,1.77
		c0,0.66-0.27,1.3-0.73,1.77C266.981,62.93,266.341,63.2,265.68,63.2z M276.124,78.053c-5.44,0-9.24-2.193-9.24-5.333
		c0-1.381,1.119-2.5,2.5-2.5c1.189,0,2.185,0.831,2.438,1.943c0.493,0.32,1.96,0.89,4.303,0.89c2.343,0,3.81-0.57,4.303-0.89
		c0.253-1.112,1.249-1.943,2.438-1.943c1.381,0,2.5,1.119,2.5,2.5C285.365,75.86,281.565,78.053,276.124,78.053z M288.341,62.47
		c-0.47,0.46-1.11,0.73-1.77,0.73c-0.66,0-1.3-0.27-1.77-0.73c-0.46-0.47-0.73-1.11-0.73-1.77c0-0.66,0.27-1.3,0.73-1.77
		c0.93-0.93,2.6-0.93,3.54,0c0.46,0.47,0.73,1.11,0.73,1.77C289.071,61.36,288.801,62,288.341,62.47z"/>
	<path style="fill:#C69C6D;" d="M351.499,85.768V87.5c0,1.888-0.534,3.648-1.443,5.158v0.849c0,1.46,1.188,2.647,2.647,2.647
		c1.46,0,2.647-1.188,2.647-2.647V92.66c-0.911-1.51-1.444-3.271-1.444-5.16v-1.733H351.499z"/>
	<path style="fill:#E5CBBD;" d="M276.124,115.876c11.623,0,19.728-4.514,20.997-11.413l-11.383-2.731
		c-1.124-0.27-1.917-1.275-1.917-2.431V88.144c-2.405,1.16-4.996,1.795-7.697,1.795c-2.701,0-5.293-0.635-7.698-1.795v11.157
		c0,1.156-0.793,2.161-1.917,2.431l-11.384,2.732C256.396,111.362,264.501,115.876,276.124,115.876z"/>
	<path style="fill:#D8D5D4;" d="M335.859,92.535h5.606c2.776,0,5.034-2.258,5.034-5.035v-3.944h-15.675v1.435V87.5
		C330.824,90.277,333.083,92.535,335.859,92.535z M336.89,86.28c0.93-0.93,2.61-0.93,3.54,0c0.46,0.46,0.73,1.11,0.73,1.77
		c0,0.65-0.27,1.3-0.73,1.76c-0.47,0.47-1.11,0.74-1.77,0.74c-0.66,0-1.3-0.27-1.77-0.74c-0.46-0.46-0.73-1.11-0.73-1.76
		C336.16,87.39,336.43,86.74,336.89,86.28z"/>
	<path style="fill:#CCCCCC;" d="M327.123,69.306c-2.499,8.075-2.116,12.601-1.299,15.024v-3.274c0-1.381,1.119-2.5,2.5-2.5h2.404
		c0.394-8.387,2.772-15.23,6.7-19.924C332.807,59.431,329.006,63.222,327.123,69.306z"/>
	<path style="fill:#C69C6D;" d="M374.283,96.343c-1.412,0.759-3.024,1.192-4.736,1.192h-5.605c-1.517,0-2.951-0.348-4.241-0.953
		c-1.186,2.689-3.874,4.573-6.997,4.573c-3.123,0-5.811-1.884-6.997-4.573c-1.291,0.605-2.724,0.953-4.241,0.953h-5.606
		c-1.712,0-3.325-0.433-4.737-1.192c1.599,11.015,10.011,18.421,21.581,18.421C364.272,114.764,372.684,107.357,374.283,96.343z
		 M343.463,105.139c0-1.381,1.119-2.5,2.5-2.5c0.782,0,1.479,0.359,1.938,0.92c0.695,0.206,2.355,0.496,4.802,0.496
		c2.447,0,4.107-0.29,4.802-0.496c0.458-0.562,1.156-0.92,1.938-0.92c1.381,0,2.5,1.119,2.5,2.5c0,0.969,0,3.917-9.24,3.917
		C343.463,109.055,343.463,106.107,343.463,105.139z"/>
	<polygon style="fill:#FFFFFF;" points="343.166,134.827 338.168,125.31 331.495,127.547 332.039,139.758 	"/>
	<path style="fill:#C4806E;" d="M159.776,256.189l-21.183-95.634c-0.057-0.245-2.723-6.974-3.004-7.49l-10.985,11.406
		c3.332,8.158,2.829,14.342,1.334,19.437l21.996,77.013L159.776,256.189z"/>
	<path style="fill:#998675;" d="M254.894,434.801h18.73v-14.648h-10.915C261.968,423.368,259.978,429.493,254.894,434.801z"/>
	<path style="fill:#E5CBBD;" d="M262.719,415.152h10.906V313.32h-22.343C251.498,323.183,252.957,361.491,262.719,415.152z"/>
	<path style="fill:#998675;" d="M278.624,420.152v14.648h18.729c-5.084-5.308-7.074-11.433-7.815-14.648H278.624z"/>
	<path style="fill:#E5CBBD;" d="M278.624,415.152h10.905c9.768-53.693,11.222-91.974,11.438-101.833h-22.342V415.152z"/>
	<path style="fill:#A6D9FF;" d="M247.699,171.398l-0.691-11.741c-0.853-0.277-1.67-0.688-2.448-1.204l-7.335,24.095l2.053,8.41
		C241.753,182.772,244.579,176.189,247.699,171.398z"/>
	<path style="fill:#B7C16F;" d="M238.65,150.15c-2.184-6.327-1.925-15.503,3.806-20.699c1.023-0.928,2.605-0.85,3.531,0.173
		c0.928,1.023,0.85,2.604-0.173,3.531c-3.872,3.51-4.157,10.385-2.438,15.363c1.341,3.883,3.714,6.406,6.193,6.583
		c1.252,0.09,2.243,1.094,2.317,2.347l0.854,14.491c0.033,0.552-0.119,1.1-0.431,1.557c-3.083,4.515-5.905,11.045-8.395,19.393
		c0.349,5.398,10.012,5.85,29.711,5.878v-77.956c-12.803-0.668-21.675-6.501-23.374-15.178c0,0-6.755,0.963-12.834,5.921
		c-0.02,0.017-0.05,0.004-0.076,0.01c-7.77,6.512-10.029,15.842-10.152,16.375l-6.636,29.96c0,0.001-0.001,0.002-0.001,0.003
		l-3.466,15.647c0,0.002-0.001,0.004-0.001,0.005l-10.167,45.898l12.477,4.488l21.216-69.686
		C239.847,153.042,239.178,151.68,238.65,150.15z"/>
	<path style="fill:#767743;" d="M312.938,214.75l-7.077,34.804c-0.001,0.001-0.001,0.003-0.002,0.004
		c-0.005,0.024-0.015,0.045-0.021,0.069c-0.031,0.135-0.069,0.268-0.123,0.395c-0.023,0.056-0.058,0.106-0.085,0.161
		c-0.044,0.086-0.083,0.174-0.136,0.255l-5.912,8.909l-1.898,8.55c-0.77,5.327-5.458,9.21-10.828,9.21
		c-0.466,0-0.936-0.029-1.41-0.089c-2.943-0.372-5.549-1.855-7.335-4.177c-1.736-2.254-2.485-5.038-2.111-7.837l0.88-6.487
		l-1.377-9.087c-0.013-0.083-0.012-0.166-0.016-0.25c-0.002-0.042-0.013-0.081-0.013-0.124c0-0.01,0.003-0.019,0.003-0.028
		c0.001-0.156,0.015-0.312,0.046-0.467l0.001-0.006c0.001-0.002,0.001-0.004,0.002-0.006l9.032-44.801
		c-2.324,0.018-4.771,0.021-7.321,0.021c-0.37,0-0.741,0-1.114,0c-11.27,0-20.172,0-26.265-1.127
		c-1.591-0.294-5.084-0.954-7.704-3.062c-8.807,38.349-2.535,96.805-1.108,108.74h70.154c0.836-6.959,3.332-29.737,3.514-54.952
		C312.937,241.021,312.616,227.276,312.938,214.75z"/>
	<path style="fill:#333333;" d="M136.334,425.467c-2.564,2.717-3.339,6.783-3.565,9.333h32.422v-12.33h-21
		C140.807,422.471,138.238,423.451,136.334,425.467z"/>
	<path style="fill:#333333;" d="M209.173,422.471h-21v12.33h32.428c-0.221-2.549-0.993-6.614-3.587-9.35
		C215.112,423.446,212.547,422.471,209.173,422.471z"/>
	<path style="fill:#E5CBBD;" d="M202.911,237.543c-0.351,1.554-0.078,3.14,0.767,4.478c0.845,1.337,2.16,2.266,3.704,2.615
		c1.544,0.348,3.13,0.076,4.467-0.771c1.338-0.845,2.644-3.822,2.662-3.881l3.426-11.253l-12.109-4.356L202.911,237.543z"/>
	<path style="fill:#4D4D4D;" d="M212.136,249.203c-1.108,0.372-2.259,0.582-3.429,0.582c-0.807,0-1.62-0.09-2.426-0.272
		c-2.846-0.643-5.271-2.355-6.83-4.822c-1.559-2.467-2.062-5.393-1.419-8.239l1.002-4.526h-39.511l8.233,37.168
		c1.323,5.866-2.379,11.725-8.254,13.05c-0.806,0.182-1.619,0.272-2.426,0.272c-2.041,0-4.044-0.576-5.812-1.692
		c-2.446-1.545-4.149-3.942-4.804-6.757l-5.232-18.32v161.824h24.098l8.865-161.277c0.076-1.378,1.245-2.437,2.633-2.359
		c1.285,0.071,2.277,1.103,2.346,2.359h0.004l8.866,161.277h24.097V249.203z"/>
	<path style="fill:#4D4D4D;" d="M381.903,424.497H363.07v10.304h28.947c-0.23-2.181-0.938-5.417-3.059-7.655
		C387.269,425.363,384.961,424.497,381.903,424.497z"/>
	<path style="fill:#588AA3;" d="M405.03,150.59c-0.018-0.088-0.031-0.178-0.039-0.268c-0.058-0.574-1.655-14.407-19.614-18.938
		c-0.061-0.015-6.533-2.183-6.533-2.183l-0.644,14.438c-0.037,0.825-0.479,1.579-1.181,2.014c-0.401,0.249-0.858,0.375-1.316,0.375
		c-0.344,0-0.689-0.071-1.013-0.214l-1.592-0.706c-1.597,4.872-5.639,10.954-13.576,13.283c-0.033,0.01-0.061,0.027-0.095,0.036
		c-0.019,0.005-0.037,0.003-0.055,0.007c-1.846,0.527-3.951,0.923-6.668,0.923c-2.716,0-4.821-0.396-6.667-0.923
		c-0.019-0.004-0.037-0.002-0.055-0.007c-0.033-0.009-0.062-0.025-0.095-0.036c-7.938-2.329-11.979-8.412-13.576-13.283
		l-1.592,0.706c-0.324,0.144-0.668,0.214-1.013,0.214c-0.458,0-0.915-0.126-1.316-0.375c-0.702-0.435-1.145-1.189-1.181-2.014
		l-0.621-13.933c-0.205-0.081-0.399-0.188-0.576-0.319c0,0-5.918,1.982-5.98,1.998c-17.959,4.531-19.556,18.364-19.615,18.95
		c-0.008,0.081-0.022,0.175-0.038,0.256l-10.299,51.085c0,0.001,0,0.003-0.001,0.005l-9.047,44.876h20.339l14.726-72.418
		c0.269-1.323,1.541-2.193,2.87-1.966c1.33,0.227,2.241,1.468,2.057,2.805c-0.068,0.496-6.453,47.798-0.854,80.875h32.238h0.599
		h32.238c5.602-33.089-0.786-80.379-0.854-80.875c-0.184-1.337,0.726-2.579,2.057-2.805c1.338-0.229,2.601,0.644,2.87,1.966
		l14.726,72.418h20.339L405.03,150.59z"/>
	<path style="fill:#736357;" d="M384.363,260.852h-31.36h-0.599h-31.36v158.645h24.377l4.763-139.668
		c0.047-1.38,1.176-2.467,2.584-2.414c1.322,0.045,2.357,1.111,2.402,2.413l0.011,0l4.805,139.669h24.377V260.852z"/>
	<path style="fill:#C69C6D;" d="M423.797,260.852h-12.517c0,0,1.374,6.199,1.383,6.27c0.235,1.759,1.69,3.308,2.728,4.106
		c0.917-4.448,4.246-8.02,8.552-9.297L423.797,260.852z"/>
	<path style="fill:#C69C6D;" d="M282.073,269.791c0.968,1.258,2.389,2.062,4.001,2.266c3.26,0.415,6.251-1.802,6.669-4.936
		c0.009-0.071,0.022-0.141,0.038-0.211l1.345-6.059H281.61l-0.654,4.819C280.76,267.135,281.157,268.6,282.073,269.791z"/>
	<polygon style="fill:#588AA3;" points="409.506,255.852 423.873,255.852 424.524,251.556 406.655,251.556 	"/>
	<polygon style="fill:#588AA3;" points="298.752,251.556 280.883,251.556 281.533,255.852 295.901,255.852 	"/>
	<path style="fill:#4D4D4D;" d="M316.432,427.163c-2.098,2.226-2.805,5.458-3.039,7.638h28.943v-10.304h-18.833
		C320.436,424.497,318.123,425.369,316.432,427.163z"/>
	<path style="fill:#E0B489;" d="M92.161,421.04h10.904c5.159-28.515,8.023-56.004,9.558-75.013H92.161V421.04z"/>
	<path style="fill:#C4806E;" d="M43.733,153.064c-2.149,3.945-2.938,7.198-3.009,7.506l-21.153,95.498l12.049,4.049l21.78-76.149
		c-1.509-5.107-2.03-11.308,1.315-19.499L43.733,153.064z"/>
	<path style="fill:#E0B489;" d="M18.073,262.833c3.912,2.059,6.589,6.16,6.589,10.879c0,1.381-1.119,2.5-2.5,2.5
		c-1.381,0-2.5-1.119-2.5-2.5c0-2.299-1.072-4.349-2.739-5.687l-0.476,2.149c-0.351,1.554-0.078,3.14,0.767,4.478
		c0.845,1.337,2.16,2.266,3.704,2.615c1.543,0.347,3.129,0.075,4.467-0.771c1.338-0.845,2.267-2.16,2.615-3.704
		c0.01-0.046,0.022-0.091,0.035-0.137l2.21-7.726l-11.761-3.952L18.073,262.833z"/>
	<path style="fill:#C4806E;" d="M87.16,185.588l-16.916-48.874l-8.444,2.026c-7.184,1.689-12.045,5.806-15.274,10.017L59.471,162.2
		c0.711,0.738,0.899,1.836,0.475,2.77c-4.894,10.751-2.194,17.141,0.417,23.319c2.254,5.333,4.584,10.849,0.581,17.691
		c-10.324,17.645-11.706,33.581-11.836,39.398H87.16V185.588z"/>
	<path style="fill:#998675;" d="M64.401,434.801h22.761v-8.761H74.244C73.308,426.091,66.631,426.736,64.401,434.801z"/>
	<polygon style="fill:#96564A;" points="96.594,157.49 82.726,157.49 89.66,177.525 	"/>
	<path style="fill:#D8D5D4;" d="M74.774,98.36h4.718c2.117,0,3.84-1.723,3.84-3.841v-2.923H70.933v2.923
		C70.933,96.637,72.656,98.36,74.774,98.36z M75.361,93.21c0.94-0.93,2.61-0.93,3.54,0c0.47,0.46,0.73,1.11,0.73,1.77
		c0,0.66-0.27,1.3-0.73,1.77c-0.46,0.46-1.11,0.73-1.77,0.73c-0.66,0-1.3-0.27-1.77-0.74c-0.46-0.46-0.73-1.1-0.73-1.76
		C74.631,94.32,74.901,93.68,75.361,93.21z"/>
	<path style="fill:#E0B489;" d="M89.661,119.088c8.193,0,15.17-6.783,17.704-16.196c-0.886,0.299-1.832,0.468-2.818,0.468H99.83
		c-4.876,0-8.842-3.966-8.842-8.841v-0.495h-2.657v0.495c0,4.875-3.965,8.841-8.84,8.841h-4.718c-0.986,0-1.932-0.17-2.818-0.468
		C74.49,112.305,81.467,119.088,89.661,119.088z M82.92,104.267c1.189,0,2.185,0.831,2.438,1.943c0.493,0.32,1.96,0.89,4.303,0.89
		c2.343,0,3.81-0.57,4.303-0.89c0.253-1.112,1.249-1.943,2.438-1.943c1.381,0,2.5,1.119,2.5,2.5c0,3.14-3.8,5.333-9.24,5.333
		c-5.44,0-9.24-2.193-9.24-5.333C80.42,105.386,81.539,104.267,82.92,104.267z"/>
	<path style="fill:#E0B489;" d="M98.324,152.49l5.865-16.948l-4.916-1.179c-1.124-0.27-1.917-1.275-1.917-2.431v-9.419
		c-2.415,1.016-5.002,1.575-7.696,1.575c-2.695,0-5.284-0.56-7.7-1.577v9.42c0,1.156-0.792,2.161-1.916,2.431l-4.915,1.179
		l5.866,16.948H98.324z"/>
	<path style="fill:#CCCCCC;" d="M80.079,70.796c0-1.363,1.092-2.476,2.456-2.5c1.369-0.056,2.495,1.048,2.543,2.411
		c0.029,0.469,1,11.814,23.31,12.604c0,0-0.008-4.958-0.008-4.985c0-9.615-8.222-17.147-18.719-17.147
		c-10.496,0-18.719,7.532-18.719,17.147c0,0.033-0.008,0.064-0.01,0.097v3.617C74.616,80.146,80.079,76.395,80.079,70.796z"/>
	<path style="fill:#C4806E;" d="M132.795,148.756c-3.228-4.209-8.086-8.325-15.266-10.013l-8.455-2.029L92.16,185.588v59.79h38.046
		c-0.141-5.83-1.543-21.814-11.831-39.398c-4.003-6.843-1.673-12.358,0.581-17.691c2.611-6.179,5.311-12.568,0.417-23.319
		c-0.425-0.933-0.237-2.031,0.475-2.77L132.795,148.756z"/>
	<path style="fill:#96564A;" d="M56.864,341.027h65.594c9.631-57.937,8.618-83.637,8.003-90.649H48.866
		C48.261,257.431,47.266,283.295,56.864,341.027z"/>
	<path style="fill:#998675;" d="M92.161,426.04v8.761h22.759c-2.233-8.073-8.922-8.711-9.846-8.761H92.161z"/>
	<path style="fill:#E0B489;" d="M76.256,421.04h10.906v-75.013H66.698C68.233,365.036,71.097,392.525,76.256,421.04z"/>
	<path style="fill:#C69C6D;" d="M420.397,271.818c1.168-0.363,2.189-1.056,2.936-2.027c0.622-0.808,0.982-1.745,1.103-2.72
		C422.469,267.961,420.969,269.699,420.397,271.818z"/>
	<path style="fill:#E0B489;" d="M151.32,272.793c0.348,1.543,1.276,2.858,2.614,3.703c1.338,0.846,2.926,1.118,4.467,0.771
		c3.186-0.719,5.194-3.897,4.475-7.083l-2.004-9.049l-11.558,4.618l1.972,6.904C151.298,272.702,151.309,272.748,151.32,272.793z"/>
	<path style="fill:#1C1B1A;" d="M89.66,112.1c5.44,0,9.24-2.193,9.24-5.333c0-1.381-1.119-2.5-2.5-2.5
		c-1.189,0-2.185,0.831-2.438,1.943c-0.493,0.32-1.959,0.89-4.303,0.89c-2.343,0-3.81-0.57-4.303-0.89
		c-0.253-1.112-1.248-1.943-2.438-1.943c-1.381,0-2.5,1.119-2.5,2.5C80.42,109.907,84.22,112.1,89.66,112.1z"/>
	<path style="fill:#1C1B1A;" d="M77.131,97.48c0.66,0,1.31-0.27,1.77-0.73c0.46-0.47,0.73-1.11,0.73-1.77
		c0-0.66-0.26-1.31-0.73-1.77c-0.93-0.93-2.6-0.93-3.54,0c-0.46,0.47-0.73,1.11-0.73,1.77c0,0.66,0.27,1.3,0.73,1.76
		C75.83,97.21,76.47,97.48,77.131,97.48z"/>
	<path style="fill:#1C1B1A;" d="M102.191,97.48c0.66,0,1.3-0.27,1.77-0.74c0.46-0.46,0.73-1.1,0.73-1.76c0-0.66-0.27-1.3-0.73-1.77
		c-0.94-0.93-2.61-0.93-3.54,0c-0.46,0.46-0.73,1.11-0.73,1.77c0,0.66,0.27,1.3,0.73,1.76
		C100.881,97.21,101.531,97.48,102.191,97.48z"/>
	<path style="fill:#1C1B1A;" d="M361.943,105.139c0-1.381-1.119-2.5-2.5-2.5c-0.782,0-1.479,0.359-1.938,0.92
		c-0.695,0.206-2.355,0.496-4.802,0.496c-2.447,0-4.107-0.29-4.802-0.496c-0.458-0.562-1.156-0.92-1.938-0.92
		c-1.381,0-2.5,1.119-2.5,2.5c0,0.969,0,3.917,9.24,3.917C361.943,109.055,361.943,106.107,361.943,105.139z"/>
	<path style="fill:#1C1B1A;" d="M343.446,74.129h18.514c1.381,0,2.5-1.119,2.5-2.5c0-1.381-1.119-2.5-2.5-2.5h-18.514
		c-1.381,0-2.5,1.119-2.5,2.5C340.946,73.01,342.065,74.129,343.446,74.129z"/>
	<path style="fill:#1C1B1A;" d="M347.518,66.022h10.369c1.381,0,2.5-1.119,2.5-2.5c0-1.381-1.119-2.5-2.5-2.5h-10.369
		c-1.381,0-2.5,1.119-2.5,2.5C345.018,64.903,346.137,66.022,347.518,66.022z"/>
	<path style="fill:#1C1B1A;" d="M338.66,90.55c0.66,0,1.3-0.27,1.77-0.74c0.46-0.46,0.73-1.11,0.73-1.76c0-0.66-0.27-1.31-0.73-1.77
		c-0.93-0.93-2.61-0.93-3.54,0c-0.46,0.46-0.73,1.11-0.73,1.77c0,0.65,0.27,1.3,0.73,1.76C337.361,90.28,338,90.55,338.66,90.55z"/>
	<path style="fill:#1C1B1A;" d="M366.74,90.55c0.66,0,1.31-0.27,1.77-0.74c0.47-0.46,0.73-1.11,0.73-1.76
		c0-0.66-0.26-1.31-0.73-1.77c-0.93-0.93-2.6-0.93-3.53,0c-0.47,0.46-0.74,1.11-0.74,1.77c0,0.65,0.27,1.3,0.74,1.76
		C365.441,90.28,366.08,90.55,366.74,90.55z"/>
	<path style="fill:#1C1B1A;" d="M428.934,261.521l-0.408-3.005l1.376-9.087c0.013-0.083-19.949-99.715-19.949-99.715
		c-0.217-1.873-2.672-17.913-23.26-23.155l-19.523-6.546v-4.159c7.626-4.652,12.41-13.098,12.41-23.382v-0.557
		c1.119-0.614,2.493-1.684,3.616-3.534c2.735-4.506,2.689-11.421-0.138-20.555c-3.224-10.417-11.667-15.984-20.768-13.895
		c-2.814-1.535-6.032-2.359-9.588-2.359c-3.556,0-6.774,0.824-9.588,2.359c-9.098-2.087-17.545,3.479-20.768,13.895
		c-2.827,9.134-2.873,16.05-0.138,20.556c1.123,1.85,2.496,2.919,3.615,3.533v0.557c0,10.284,4.784,18.731,12.412,23.383v4.158
		l-9.447,3.168c-2.334-6.206-8.725-18.428-23.64-21.934l-16.328-3.918v-5.797c10.202-0.479,17.556-3.933,21.869-10.298
		c8.576-12.658,1.817-32.253,0.572-35.575c-0.096-8.885-2.927-16.061-8.418-21.333c-10.003-9.605-25.24-9.385-26.723-9.339
		c-1.536-0.043-16.735-0.245-26.717,9.339c-5.491,5.273-8.322,12.448-8.418,21.333c-1.245,3.322-8.003,22.917,0.573,35.575
		c4.313,6.366,11.667,9.82,21.868,10.298v5.797l-16.316,3.915c-3.512,0.826-6.543,2.14-9.168,3.739
		c-1.179-2.806-3.129-6.269-6.316-9.572c-0.136-0.186-0.304-0.348-0.489-0.492c-3.721-3.692-9.029-7.127-16.597-9.133l-20.369-9.797
		v-3.864c3.953-4.189,6.631-10.478,8.307-19.17c3.38-1.86,9.891-8.606,6.054-32.577C206.813,9.642,203.083,0.002,176.687,0
		c0,0-0.001,0-0.001,0c-0.002,0-0.003,0-0.004,0c-0.001,0-0.003,0-0.004,0c-0.001,0-0.001,0-0.001,0
		c-26.396,0.002-30.126,9.642-31.845,20.38c-3.837,23.97,2.674,30.715,6.053,32.576c1.676,8.692,4.354,14.981,8.307,19.17v3.864
		l-20.368,9.797c-22.469,5.951-25.066,23.953-25.283,25.923l-3.921,19.993l-7.262-1.743v-10.394
		c6.624-5.151,11.03-14.198,11.03-24.485c0,0-0.009-16.824-0.011-16.859c-0.034-7.108-3.483-13.322-8.928-17.325
		c0.75-1.876,1.147-3.887,1.147-5.927c0-8.788-7.148-15.937-15.936-15.937c-8.788,0-15.938,7.149-15.938,15.937
		c0,2.04,0.397,4.051,1.148,5.928c-5.437,3.999-8.884,10.201-8.926,17.298c-0.002,0.044-0.013,16.885-0.013,16.885
		c0,10.286,4.406,19.331,11.028,24.483v10.396l-16.316,3.915c-19.839,4.664-24.603,24.733-24.798,25.597L13.255,261.465
		c-0.294-0.021-0.587-0.045-0.886-0.045c-6.778,0-12.293,5.514-12.293,12.293v163.588c0,1.381,1.119,2.5,2.5,2.5
		c1.381,0,2.5-1.119,2.5-2.5V273.712c0-3.949,3.157-7.167,7.079-7.282l-0.587,2.652c-0.643,2.846-0.139,5.772,1.419,8.239
		c1.559,2.467,3.984,4.179,6.83,4.822c0.807,0.182,1.62,0.272,2.426,0.272c2.041,0,4.044-0.575,5.812-1.692
		c2.446-1.545,4.15-3.942,4.805-6.756l23.521-82.238c1.735,4.214,2.7,7.53,0.246,11.726c-13.002,22.222-12.629,41.631-12.508,44.292
		c-0.446,3.029-3.356,27.804,8.163,96.195c0.203,1.204,1.245,2.085,2.465,2.085h6.934c1.529,19.04,4.395,46.705,9.575,75.458
		c-4.783,1.262-11.139,5.441-12.364,15.513c-0.086,0.711,0.136,1.424,0.61,1.96c0.475,0.536,1.156,0.842,1.871,0.842h56.572
		c0.716,0,1.397-0.307,1.872-0.842c0.474-0.536,0.696-1.249,0.61-1.96c-1.225-10.072-7.581-14.251-12.364-15.513
		c5.18-28.754,8.046-56.418,9.575-75.458h6.934c1.221,0,2.263-0.881,2.465-2.085c11.523-68.425,8.604-93.19,8.161-96.2
		c0.121-2.68,0.485-22.079-12.509-44.288c-2.464-4.212-1.481-7.538,0.266-11.775l13.32,46.637
		c-0.033,0.162-0.051,181.007-0.051,181.007c-1.306,0.706-2.486,1.607-3.528,2.711c-5.49,5.816-5.026,15.021-5.004,15.41
		c0.076,1.323,1.171,2.356,2.496,2.356h37.5c1.381,0,2.5-1.119,2.5-2.5v-17.264l6.491-118.082l6.492,118.082v17.264
		c0,1.381,1.119,2.5,2.5,2.5h37.5c1.325,0,2.419-1.033,2.496-2.356c0.022-0.389,0.487-9.594-5.003-15.41
		c-1.043-1.105-2.224-2.006-3.529-2.711V245.771c1.043-1.272,1.797-2.768,2.184-4.413l15.048-49.427l2.289,9.378
		c-9.017,43.427-0.682,106.964-0.296,109.844c0.167,1.241,1.226,2.167,2.478,2.167h7.441c0.217,10.015,1.703,49.387,11.821,104.376
		c-0.319,1.921-2.382,11.839-11.57,17.473c-0.955,0.585-1.403,1.733-1.1,2.811c0.304,1.077,1.287,1.821,2.406,1.821h28.286h28.285
		c1.119,0,2.102-0.744,2.406-1.821c0.304-1.078-0.145-2.225-1.1-2.811c-9.186-5.633-11.25-15.549-11.57-17.473
		c10.119-54.99,11.604-94.362,11.821-104.377h7.442c1.252,0,2.311-0.927,2.478-2.167c0.004-0.033,0.061-0.462,0.156-1.23v111.312
		c-1.204,0.652-2.291,1.482-3.25,2.5c-4.938,5.239-4.515,13.372-4.495,13.715c0.079,1.321,1.172,2.352,2.496,2.352h34.042
		c1.381,0,2.5-1.119,2.5-2.5v-12.804h0.5c1.348,0,2.453-1.068,2.499-2.415l2.357-69.138l2.379,69.139
		c0.046,1.347,1.151,2.414,2.499,2.414h0.5v12.804c0,1.381,1.119,2.5,2.5,2.5h34.042c1.323,0,2.417-1.031,2.496-2.352
		c0.021-0.343,0.443-8.476-4.495-13.715c-0.958-1.017-2.046-1.847-3.25-2.5V260.966c0.145-0.695,0.284-1.397,0.418-2.105
		c0.001-0.004,0.002-0.009,0.002-0.014c2.577-13.654,3.055-29.683,2.686-44.098c0,0,7.168,35.145,7.222,35.272
		c0.023,0.055,6.134,9.324,6.134,9.324l1.898,8.55c0.77,5.327,5.458,9.21,10.828,9.21c0.465,0,0.936-0.029,1.409-0.089
		c2.944-0.373,5.549-1.856,7.336-4.177c1.379-1.791,2.124-3.918,2.188-6.122c3.024,0.889,5.24,3.685,5.24,6.993v163.588
		c0,1.381,1.119,2.5,2.5,2.5c1.381,0,2.5-1.119,2.5-2.5V273.712C439.724,267.444,435.005,262.266,428.934,261.521z M367.239,125.31
		l6.672,2.237l-0.544,12.21l-11.127-4.931L367.239,125.31z M354.837,143.539h-4.268l-3.484-4.979l0.088-0.039h11.06l0.088,0.039
		L354.837,143.539z M355.698,154.122c-0.932,0.139-1.927,0.221-2.993,0.233c-1.066-0.013-2.062-0.096-2.994-0.237l1.48-5.579h3.025
		L355.698,154.122z M357.279,133.52h-9.151l-4.892-9.314v-5.994c2.907,1.009,6.085,1.551,9.467,1.551
		c3.381,0,6.561-0.542,9.468-1.552v5.995L357.279,133.52z M346.553,146.52l-1.635,6.162c-5.16-2.475-7.213-7.081-7.978-9.627
		l5.487-2.431L346.553,146.52z M362.979,140.623l5.501,2.438c-0.746,2.55-2.777,7.173-7.985,9.643l-1.641-6.184L362.979,140.623z
		 M374.581,84.991V87.5c0,2.776-2.258,5.035-5.034,5.035h-5.605c-2.776,0-5.035-2.258-5.035-5.035v-3.944h15.675V84.991z
		 M378.282,69.306c2.452,7.922,2.198,12.466,1.298,15.049v-3.298c0-1.381-1.119-2.5-2.5-2.5h-2.403
		c-0.393-8.386-2.771-15.228-6.699-19.922C372.598,59.434,376.4,63.224,378.282,69.306z M352.703,56.574
		c11.681,0,16.368,10.934,16.969,21.983h-13.266c-1.282,0-2.326,0.968-2.471,2.211h-2.466c-0.145-1.243-1.189-2.211-2.471-2.211
		h-13.265C336.335,67.507,341.022,56.574,352.703,56.574z M355.35,92.66v0.848c0,1.46-1.188,2.647-2.647,2.647
		c-1.46,0-2.647-1.188-2.647-2.647v-0.849c0.91-1.51,1.443-3.271,1.443-5.158v-1.733h2.407V87.5
		C353.906,89.389,354.44,91.15,355.35,92.66z M328.324,78.557c-1.381,0-2.5,1.119-2.5,2.5v3.274c-0.817-2.423-1.2-6.95,1.299-15.024
		c1.883-6.084,5.684-9.874,10.305-10.673c-3.928,4.694-6.307,11.537-6.7,19.924H328.324z M330.824,84.991v-1.435h15.675V87.5
		c0,2.776-2.258,5.035-5.034,5.035h-5.606c-2.776,0-5.035-2.258-5.035-5.035V84.991z M331.122,96.343
		c1.412,0.759,3.025,1.192,4.737,1.192h5.606c1.517,0,2.951-0.348,4.241-0.953c1.186,2.689,3.874,4.573,6.997,4.573
		c3.123,0,5.811-1.884,6.997-4.573c1.29,0.605,2.724,0.953,4.241,0.953h5.605c1.712,0,3.325-0.433,4.736-1.192
		c-1.599,11.015-10.011,18.421-21.58,18.421C341.133,114.764,332.72,107.357,331.122,96.343z M338.168,125.31l4.999,9.517
		l-11.127,4.931l-0.544-12.21L338.168,125.31z M301.996,105.633l1.997,0.479c12.561,2.953,18.034,13.337,20.058,18.658l-5.338,1.79
		c-20.588,5.242-23.043,21.282-23.26,23.155l-9.884,49.025c-2.193,0.022-4.519,0.028-6.945,0.029v-77.958
		C291.427,120.144,300.298,114.311,301.996,105.633z M276.124,84.938c-9.762,0-17.703-11.34-17.703-25.278v-4.912
		c4.102-1.093,13.269-4.213,17.703-11.093c4.434,6.88,13.602,10,17.703,11.093v4.912C293.827,73.599,285.886,84.938,276.124,84.938z
		 M245.704,78.439c-7.715-11.369,0.023-31.186,0.101-31.385c0.117-0.294,0.178-0.609,0.178-0.925c0-7.677,2.309-13.792,6.862-18.176
		c8.738-8.413,23.043-7.971,23.181-7.967c0.034,0.001,0.066-0.006,0.1-0.006c0.034,0,0.066,0.007,0.1,0.006
		c0.143-0.001,14.378-0.481,23.155,7.946c4.568,4.386,6.884,10.508,6.884,18.197c0,0.317,0.06,0.632,0.178,0.927
		c0.079,0.199,7.832,19.973,0.108,31.373c-3.348,4.941-9.311,7.654-17.73,8.095v-1.776c6.033-5.448,10.006-14.661,10.006-25.088
		v-6.889h-0.003c0.001-1.178-0.83-2.228-2.03-2.456c-0.182-0.035-18.17-3.589-18.17-15.185c0-1.381-1.119-2.5-2.5-2.5
		c-1.381,0-2.5,1.119-2.5,2.5c0,11.527-17.906,15.134-18.171,15.186c-1.199,0.228-2.03,1.278-2.029,2.456h-0.003v6.889
		c0,10.427,3.973,19.639,10.005,25.087v1.777C255.013,86.084,249.053,83.375,245.704,78.439z M266.51,101.732
		c1.124-0.27,1.917-1.275,1.917-2.431V88.144c2.405,1.16,4.997,1.795,7.698,1.795c2.701,0,5.293-0.635,7.697-1.795v11.157
		c0,1.156,0.793,2.161,1.917,2.431l11.383,2.731c-1.269,6.898-9.374,11.413-20.997,11.413c-11.624,0-19.728-4.514-20.998-11.412
		L266.51,101.732z M233.772,108.018c-8.808,7.617-11.32,18.203-11.461,18.825l-4.069,18.368l-1.021-5.163l13.316-38.225
		C232.084,103.998,233.103,106.152,233.772,108.018z M202.283,106.106c0.514,0,1.024-0.159,1.455-0.467
		c0.694-0.497,1.087-1.312,1.042-2.165l-0.911-17.271c0,0,9.02,4.321,9.176,4.361c6.088,1.579,10.493,4.142,13.68,6.997
		l-14.45,41.483c-0.016,0.045-0.139,0.765-0.139,0.822v32.908l-10.023,45.249h-22.936v-8.026l10.464-13.177
		c0.389-0.49,0.58-1.107,0.536-1.73l-5.984-84.851l4.766-9.288l12.394,4.974C201.653,106.047,201.969,106.106,202.283,106.106z
		 M201.006,223.024l-0.864,3.901H184.68v-3.901H201.006z M170.224,98.64h12.973l1.101,0.442l-4.176,8.137h-6.882l-4.14-8.067
		L170.224,98.64z M164.192,79.958v-3.99c3.457,1.85,7.584,2.73,12.483,2.732c0.001,0,0.001,0,0.002,0c0.001,0,0.003,0,0.004,0
		c0.001,0,0.003,0,0.004,0c0,0,0.001,0,0.002,0c4.899-0.001,9.027-0.882,12.483-2.732v3.99l-7.018,13.682h-10.944L164.192,79.958z
		 M174.043,112.219h5.277l5.801,82.254l-8.439,10.627l-8.438-10.627L174.043,112.219z M179.68,223.024v3.901h-5.997v-3.901H179.68z
		 M198.732,83.732l0.849,16.096l-12.424-4.986c0,0,6.8-13.306,6.833-13.39L198.732,83.732z M197.765,46.108
		c0,2.248-2.061,4.076-4.594,4.076h-5.277c-2.532,0-4.593-1.828-4.593-4.076v-3.124h14.464V46.108z M158.614,37.984
		c-0.512-7.008,0.225-13.989,1.062-15.197c0.107-0.107,0.187-0.172,0.237-0.209c0.349,0.09,1.115,0.504,1.741,0.843
		c2.599,1.405,6.948,3.755,15.021,3.757c0,0,0.001,0,0.002,0c0.001,0,0.003,0,0.004,0c0.001,0,0.003,0,0.004,0c0,0,0.001,0,0.001,0
		c8.075-0.002,12.423-2.353,15.022-3.757c0.628-0.339,1.396-0.755,1.744-0.844c0.042,0.029,0.102,0.074,0.171,0.139
		c0.896,1.274,1.638,8.26,1.126,15.268H158.614z M153.098,37.984c-1.381,0-2.5,1.119-2.5,2.5v4.712
		c-1.672-3.541-2.995-10.499-0.829-24.027c1.331-8.315,2.588-16.169,26.913-16.17c24.324,0.001,25.582,7.855,26.913,16.17
		c2.166,13.529,0.843,20.487-0.83,24.028v-4.713c0-1.381-1.119-2.5-2.5-2.5h-0.513c0.385-6.176,0.193-16.01-2.53-18.732
		c-2.917-2.917-5.675-1.427-7.89-0.229c-2.463,1.331-5.837,3.155-12.65,3.156c-6.812-0.001-10.186-1.825-12.65-3.156
		c-2.215-1.197-4.973-2.689-7.891,0.229c-2.722,2.722-2.915,12.556-2.53,18.732H153.098z M155.598,42.984h14.464v3.124
		c0,2.248-2.061,4.076-4.593,4.076h-5.277c-2.533,0-4.594-1.828-4.594-4.076V42.984z M156.299,54.396
		c1.191,0.502,2.506,0.788,3.893,0.788h5.277c5.29,0,9.593-4.071,9.593-9.076v-3.124h3.239v3.124c0,5.004,4.303,9.076,9.593,9.076
		h5.277c1.386,0,2.701-0.286,3.893-0.788c-3.648,15.902-10.826,19.304-20.382,19.305C167.125,73.699,159.948,70.298,156.299,54.396z
		 M154.582,83.756l4.791-2.305c0.032,0.084,6.889,13.5,6.889,13.5l-12.536,5.71L154.582,83.756z M140.318,90.564
		c0.157-0.041,9.133-4.341,9.133-4.341l-0.926,18.291c-0.044,0.872,0.369,1.704,1.091,2.194c0.421,0.287,0.912,0.433,1.405,0.433
		c0.352,0,0.706-0.074,1.037-0.225l12.488-5.688l4.624,9.012l-5.983,84.851c-0.044,0.624,0.147,1.241,0.536,1.73l10.454,13.166
		v8.038h-17.733l-12.972-58.563c-0.066-0.293-0.672-2.855-2.245-6.282v-13.312c0-0.058-0.124-0.777-0.139-0.822l-14.446-41.473
		C129.817,94.731,134.214,92.148,140.318,90.564z M168.683,223.024v3.901h-10.268l-0.864-3.901H168.683z M118.469,112.561
		c0.016-0.08,0.028-0.171,0.036-0.251c0.036-0.368,0.585-5.272,4.321-10.491l13.316,38.23l-0.781,3.95
		c-3.762-4.333-9.123-8.344-16.676-10.12l-4.2-1.008L118.469,112.561z M108.388,94.519c0,2.118-1.723,3.841-3.841,3.841H99.83
		c-2.118,0-3.842-1.723-3.842-3.841v-2.923h12.399V94.519z M93.489,86.596c-1.356,0-2.454,1.081-2.493,2.428h-2.672
		c-0.039-1.347-1.137-2.428-2.493-2.428H73.016c3.099-1.569,7.36-4.303,9.903-8.393c2.227,3.094,6.219,6.42,13.304,8.393H93.489z
		 M89.661,44.034c6.03,0,10.936,4.906,10.936,10.937c0,1.152-0.202,2.284-0.552,3.367c-3.12-1.386-6.637-2.158-10.383-2.158
		c-3.746,0-7.264,0.772-10.385,2.159c-0.351-1.084-0.553-2.216-0.553-3.368C78.724,48.94,83.631,44.034,89.661,44.034z
		 M70.933,78.424c0.002-0.033,0.01-0.063,0.01-0.097c0-9.615,8.222-17.147,18.719-17.147c10.497,0,18.719,7.532,18.719,17.147
		c0,0.026,0.008,4.985,0.008,4.985c-22.311-0.79-23.281-12.135-23.31-12.604c-0.048-1.363-1.174-2.467-2.543-2.411
		c-1.363,0.024-2.456,1.136-2.456,2.5c0,5.599-5.463,9.351-9.146,11.245V78.424z M70.933,91.596h12.398v2.923
		c0,2.118-1.723,3.841-3.84,3.841h-4.718c-2.118,0-3.841-1.723-3.841-3.841V91.596z M71.956,102.892
		c0.886,0.299,1.832,0.468,2.818,0.468h4.718c4.874,0,8.84-3.966,8.84-8.841v-0.495h2.657v0.495c0,4.875,3.966,8.841,8.842,8.841
		h4.717c0.986,0,1.932-0.17,2.818-0.468c-2.534,9.413-9.51,16.196-17.704,16.196C81.467,119.088,74.49,112.305,71.956,102.892z
		 M80.045,134.363c1.124-0.27,1.916-1.275,1.916-2.431v-9.42c2.417,1.017,5.005,1.577,7.7,1.577c2.694,0,5.281-0.56,7.696-1.575
		v9.419c0,1.156,0.793,2.161,1.917,2.431l4.916,1.179l-5.865,16.948H80.995l-5.866-16.948L80.045,134.363z M96.594,157.49
		l-6.934,20.035l-6.935-20.035H96.594z M28.035,272.656c-0.013,0.045-0.024,0.091-0.035,0.137c-0.349,1.543-1.277,2.859-2.615,3.704
		c-1.338,0.846-2.924,1.118-4.467,0.771c-1.544-0.349-2.859-1.277-3.704-2.615c-0.845-1.338-1.118-2.924-0.767-4.478l0.476-2.149
		c1.667,1.338,2.739,3.388,2.739,5.687c0,1.381,1.119,2.5,2.5,2.5c1.381,0,2.5-1.119,2.5-2.5c0-4.72-2.677-8.82-6.589-10.879
		l0.411-1.855l11.761,3.952L28.035,272.656z M53.401,183.969l-21.78,76.149l-12.049-4.049l21.153-95.498
		c0.071-0.308,0.859-3.561,3.009-7.506l10.983,11.406C51.371,172.661,51.892,178.862,53.401,183.969z M60.943,205.98
		c4.003-6.843,1.673-12.358-0.581-17.691c-2.611-6.179-5.311-12.568-0.417-23.319c0.425-0.933,0.237-2.031-0.475-2.77
		l-12.945-13.443c3.229-4.211,8.09-8.328,15.274-10.017l8.444-2.026l16.916,48.874v59.79H49.107
		C49.238,239.561,50.619,223.626,60.943,205.98z M87.161,434.801H64.401c2.23-8.065,8.908-8.71,9.844-8.761h12.917V434.801z
		 M87.161,421.04H76.256c-5.159-28.515-8.023-56.004-9.558-75.013h20.464V421.04z M114.92,434.801H92.161v-8.761h12.913
		C105.998,426.089,112.687,426.727,114.92,434.801z M103.065,421.04H92.161v-75.013h20.462
		C111.088,365.036,108.224,392.525,103.065,421.04z M122.457,341.027H56.864c-9.597-57.732-8.603-83.596-7.998-90.649h81.594
		C131.075,257.391,132.088,283.091,122.457,341.027z M119.373,164.97c4.894,10.751,2.194,17.141-0.417,23.319
		c-2.254,5.333-4.584,10.849-0.581,17.691c10.288,17.584,11.69,33.568,11.831,39.398H92.16v-59.79l16.914-48.874l8.455,2.029
		c7.18,1.688,12.038,5.804,15.266,10.013L119.848,162.2C119.136,162.938,118.949,164.037,119.373,164.97z M125.937,183.907
		c1.495-5.095,1.998-11.279-1.334-19.437l10.985-11.406c0.281,0.516,2.947,7.246,3.004,7.49l21.183,95.634l-11.843,4.731
		L125.937,183.907z M160.871,261.135l2.004,9.049c0.719,3.186-1.289,6.363-4.475,7.083c-1.541,0.347-3.129,0.075-4.467-0.771
		c-1.338-0.845-2.266-2.16-2.614-3.703c-0.011-0.046-0.022-0.092-0.035-0.137l-1.972-6.904L160.871,261.135z M165.191,434.801
		h-32.422c0.226-2.55,1.001-6.617,3.565-9.333c1.903-2.017,4.473-2.997,7.856-2.997h21V434.801z M179.173,256.193h-0.004
		c-0.069-1.256-1.061-2.288-2.346-2.359c-1.389-0.078-2.557,0.98-2.633,2.359l-8.865,161.277h-24.098V255.646l5.232,18.32
		c0.655,2.814,2.358,5.212,4.804,6.757c1.768,1.117,3.771,1.692,5.812,1.692c0.807,0,1.62-0.09,2.426-0.272
		c5.875-1.326,9.577-7.185,8.254-13.05l-8.233-37.168h39.511l-1.002,4.526c-0.643,2.846-0.139,5.772,1.419,8.239
		c1.558,2.467,3.983,4.179,6.83,4.822c0.807,0.182,1.62,0.272,2.426,0.272c1.17,0,2.321-0.211,3.429-0.582v168.268h-24.097
		L179.173,256.193z M220.601,434.801h-32.428v-12.33h21c3.374,0,5.939,0.975,7.841,2.98
		C219.608,428.186,220.381,432.252,220.601,434.801z M214.511,239.984c-0.018,0.059-1.324,3.036-2.662,3.881
		c-1.337,0.846-2.923,1.119-4.467,0.771c-1.544-0.349-2.859-1.277-3.704-2.615c-0.845-1.338-1.118-2.924-0.767-4.478l2.916-13.168
		l12.109,4.356L214.511,239.984z M219.395,223.942l-12.477-4.488l10.167-45.898c0.001-0.001,0.001-0.003,0.001-0.005l3.466-15.647
		c0.001-0.001,0.001-0.002,0.001-0.003l6.636-29.96c0.124-0.533,2.382-9.863,10.152-16.375c0.025-0.006,0.055,0.006,0.076-0.01
		c6.079-4.957,12.834-5.921,12.834-5.921c1.699,8.677,10.571,14.51,23.374,15.178v77.956c-19.699-0.027-29.362-0.479-29.711-5.878
		c2.489-8.349,5.311-14.879,8.395-19.393c0.312-0.457,0.464-1.004,0.431-1.557l-0.854-14.491c-0.074-1.253-1.065-2.257-2.317-2.347
		c-2.479-0.177-4.852-2.7-6.193-6.583c-1.719-4.978-1.433-11.854,2.438-15.363c1.023-0.927,1.101-2.508,0.173-3.531
		c-0.927-1.023-2.508-1.101-3.531-0.173c-5.731,5.196-5.991,14.372-3.806,20.699c0.528,1.529,1.198,2.892,1.961,4.106
		L219.395,223.942z M244.559,158.454c0.778,0.515,1.595,0.926,2.448,1.204l0.691,11.741c-3.119,4.792-5.946,11.374-8.421,19.561
		l-2.053-8.41L244.559,158.454z M273.624,434.801h-18.73c5.084-5.308,7.074-11.433,7.815-14.648h10.915V434.801z M273.624,415.152
		h-10.906c-9.762-53.662-11.22-91.97-11.437-101.833h22.343V415.152z M297.353,434.801h-18.729v-14.648h10.914
		C290.28,423.368,292.269,429.493,297.353,434.801z M289.529,415.152h-10.905V313.32h22.342
		C300.751,323.178,299.297,361.46,289.529,415.152z M311.202,308.32h-70.154c-1.427-11.936-7.699-70.392,1.108-108.74
		c2.62,2.108,6.112,2.768,7.704,3.062c6.092,1.127,14.995,1.127,26.265,1.127c0.374,0,0.745,0,1.114,0
		c2.551,0,4.998-0.003,7.321-0.021l-9.032,44.801c-0.001,0.002-0.001,0.004-0.002,0.006l-0.001,0.006
		c-0.031,0.154-0.045,0.311-0.046,0.467c0,0.01-0.003,0.019-0.003,0.028c0,0.042,0.01,0.082,0.013,0.124
		c0.004,0.084,0.003,0.167,0.016,0.25l1.377,9.087l-0.88,6.487c-0.375,2.8,0.375,5.583,2.111,7.837
		c1.787,2.321,4.392,3.805,7.335,4.177c0.474,0.06,0.944,0.089,1.41,0.089c5.369,0,10.058-3.883,10.828-9.21l1.898-8.55l5.912-8.909
		c0.054-0.081,0.092-0.169,0.136-0.255c0.027-0.054,0.062-0.104,0.085-0.161c0.053-0.127,0.091-0.26,0.123-0.395
		c0.006-0.024,0.016-0.045,0.021-0.069c0.001-0.001,0.001-0.003,0.002-0.004l7.077-34.804c-0.321,12.526-0.001,26.271,1.778,38.618
		C314.534,278.583,312.038,301.361,311.202,308.32z M281.533,255.852l-0.65-4.296h17.869l-2.851,4.296H281.533z M294.126,260.852
		l-1.345,6.059c-0.016,0.07-0.028,0.14-0.038,0.211c-0.418,3.134-3.409,5.351-6.669,4.936c-1.612-0.204-3.033-1.008-4.001-2.266
		c-0.917-1.191-1.314-2.656-1.117-4.12l0.654-4.819H294.126z M342.337,434.801h-28.943c0.233-2.18,0.941-5.412,3.039-7.638
		c1.691-1.794,4.004-2.667,7.071-2.667h18.833V434.801z M359.986,419.497l-4.805-139.669l-0.011,0
		c-0.045-1.302-1.08-2.368-2.402-2.413c-1.408-0.054-2.537,1.034-2.584,2.414l-4.763,139.668h-24.377V260.852h31.36h0.599h31.36
		v158.645H359.986z M392.017,434.801H363.07v-10.304h18.833c3.058,0,5.366,0.867,7.055,2.649
		C391.079,429.384,391.787,432.62,392.017,434.801z M404.038,246.556l-14.726-72.418c-0.268-1.322-1.532-2.195-2.87-1.966
		c-1.331,0.227-2.241,1.468-2.057,2.805c0.068,0.496,6.456,47.786,0.854,80.875h-32.238h-0.599h-32.238
		c-5.599-33.077,0.786-80.379,0.854-80.875c0.184-1.337-0.727-2.579-2.057-2.805c-1.329-0.227-2.601,0.643-2.87,1.966
		l-14.726,72.418H281.03l9.047-44.876c0.001-0.001,0.001-0.003,0.001-0.005l10.299-51.085c0.016-0.081,0.03-0.174,0.038-0.256
		c0.059-0.586,1.656-14.419,19.615-18.95c0.062-0.015,5.98-1.998,5.98-1.998c0.177,0.131,0.371,0.238,0.576,0.319l0.621,13.933
		c0.037,0.825,0.479,1.579,1.181,2.014c0.401,0.249,0.858,0.375,1.316,0.375c0.344,0,0.689-0.071,1.013-0.214l1.592-0.706
		c1.597,4.872,5.639,10.954,13.576,13.283c0.033,0.01,0.061,0.027,0.095,0.036c0.018,0.005,0.037,0.003,0.055,0.007
		c1.846,0.527,3.951,0.923,6.667,0.923c2.716,0,4.821-0.396,6.668-0.923c0.019-0.004,0.037-0.002,0.055-0.007
		c0.033-0.009,0.062-0.025,0.095-0.036c7.938-2.329,11.979-8.412,13.576-13.283l1.592,0.706c0.324,0.144,0.668,0.214,1.013,0.214
		c0.458,0,0.915-0.126,1.316-0.375c0.702-0.435,1.145-1.189,1.181-2.014l0.644-14.438c0,0,6.472,2.168,6.533,2.183
		c17.96,4.531,19.556,18.364,19.614,18.938c0.008,0.09,0.021,0.18,0.039,0.268l19.348,95.966H404.038z M415.392,271.228
		c-1.038-0.798-2.494-2.347-2.728-4.106c-0.009-0.071-1.383-6.27-1.383-6.27h12.517l0.146,1.08
		C419.637,263.208,416.308,266.78,415.392,271.228z M423.334,269.791c-0.748,0.971-1.769,1.664-2.936,2.027
		c0.572-2.119,2.072-3.857,4.039-4.747C424.316,268.046,423.955,268.983,423.334,269.791z M423.873,255.852h-14.367l-2.851-4.296
		h17.869L423.873,255.852z"/>
	<path style="fill:#1C1B1A;" d="M282.865,70.22c-1.189,0-2.185,0.831-2.438,1.943c-0.493,0.32-1.959,0.89-4.303,0.89
		c-2.343,0-3.809-0.57-4.303-0.89c-0.253-1.112-1.248-1.943-2.438-1.943c-1.381,0-2.5,1.119-2.5,2.5c0,3.14,3.8,5.333,9.24,5.333
		c5.441,0,9.24-2.193,9.24-5.333C285.365,71.339,284.245,70.22,282.865,70.22z"/>
	<path style="fill:#1C1B1A;" d="M268.18,60.7c0-0.66-0.27-1.3-0.73-1.77c-0.94-0.93-2.61-0.93-3.54,0
		c-0.46,0.47-0.73,1.11-0.73,1.77c0,0.66,0.27,1.3,0.73,1.77c0.46,0.46,1.11,0.73,1.77,0.73c0.66,0,1.3-0.27,1.77-0.73
		C267.91,62,268.18,61.36,268.18,60.7z"/>
	<path style="fill:#1C1B1A;" d="M284.801,58.93c-0.46,0.47-0.73,1.11-0.73,1.77c0,0.66,0.27,1.3,0.73,1.77
		c0.47,0.46,1.11,0.73,1.77,0.73c0.66,0,1.3-0.27,1.77-0.73c0.46-0.47,0.73-1.11,0.73-1.77c0-0.66-0.27-1.3-0.73-1.77
		C287.401,58,285.731,58,284.801,58.93z"/>
	<path style="fill:#1C1B1A;" d="M176.682,68.539c5.286,0,8.978-2.147,8.978-5.223c0-1.381-1.119-2.5-2.5-2.5
		c-1.175,0-2.161,0.811-2.428,1.903c-0.487,0.3-1.873,0.82-4.049,0.82c-2.176,0-3.563-0.52-4.049-0.819
		c-0.267-1.093-1.253-1.903-2.428-1.903c-1.381,0-2.5,1.119-2.5,2.5C167.704,66.391,171.396,68.539,176.682,68.539z"/>
	<path style="fill:#1C1B1A;" d="M162.83,49.08c0.66,0,1.3-0.26,1.77-0.73c0.46-0.46,0.73-1.11,0.73-1.77c0-0.66-0.27-1.3-0.73-1.76
		c-0.94-0.94-2.61-0.94-3.54,0c-0.46,0.46-0.73,1.1-0.73,1.76c0,0.66,0.27,1.31,0.73,1.77C161.531,48.82,162.171,49.08,162.83,49.08
		z"/>
	<path style="fill:#1C1B1A;" d="M190.531,49.08c0.66,0,1.31-0.26,1.77-0.73c0.47-0.47,0.73-1.11,0.73-1.77
		c0-0.65-0.26-1.3-0.73-1.76c-0.93-0.94-2.6-0.94-3.54,0c-0.46,0.46-0.73,1.1-0.73,1.76c0,0.66,0.27,1.31,0.73,1.77
		C189.231,48.82,189.87,49.08,190.531,49.08z"/>
</g>
<g>
</g>
<g>
</g>
<g>
</g>
<g>
</g>
<g>
</g>
<g>
</g>
<g>
</g>
<g>
</g>
<g>
</g>
<g>
</g>
<g>
</g>
<g>
</g>
<g>
</g>
<g>
</g>
<g>
</g>
</svg>
