<svg xmlns="http://www.w3.org/2000/svg" version="1.1" xmlns:xlink="http://www.w3.org/1999/xlink" xmlns:svgjs="http://svgjs.com/svgjs" width="512" height="512" x="0" y="0" viewBox="0 0 512 512" style="enable-background:new 0 0 512 512" xml:space="preserve" class=""><g><g xmlns="http://www.w3.org/2000/svg"><path d="m301.082 423.837h-16.251c-4.737 0-8.578-3.84-8.578-8.578v-8.593c-7.1 4.857-14.941 7.638-20.253 7.638s-13.153-2.781-20.253-7.638v8.593c0 4.737-3.84 8.578-8.578 8.578h-16.251c-15.824 0-28.653 12.828-28.653 28.653v49.685c0 1.284 1.041 2.326 2.326 2.326h142.818c1.284 0 2.326-1.041 2.326-2.326v-49.685c-.001-15.825-12.829-28.653-28.653-28.653z" fill="#407093" data-original="#407093"></path><g fill="#4a80aa"><path d="m359.734 7.5c-23.488 0-41.349 19.796-39.631 43.12l2.672 36.289c1.426 19.358 25.291 32.774 36.958 32.774s35.533-13.415 36.958-32.774l2.704-36.718c1.699-23.053-16.546-42.691-39.661-42.691z" fill="#4a80aa" data-original="#4a80aa"></path><path d="m256 302.122c-23.488 0-41.349 19.796-39.631 43.12l2.672 36.289c1.426 19.358 25.291 32.774 36.958 32.774s35.533-13.415 36.958-32.774l2.704-36.718c1.699-23.053-16.546-42.691-39.661-42.691z" fill="#4a80aa" data-original="#4a80aa"></path><path d="m81.234 302.122c-23.488 0-41.349 19.796-39.631 43.12l2.672 36.289c1.426 19.358 25.291 32.774 36.958 32.774s35.533-13.415 36.958-32.774l2.704-36.718c1.699-23.053-16.546-42.691-39.661-42.691z" fill="#4a80aa" data-original="#4a80aa"></path></g><path d="m404.816 129.215h-16.251c-4.737 0-8.578-3.84-8.578-8.578v-8.593c-7.1 4.857-14.941 7.638-20.253 7.638s-13.153-2.781-20.253-7.638v8.593c0 4.737-3.84 8.578-8.578 8.578h-16.251c-15.824 0-28.653 12.828-28.653 28.653v49.685c0 1.284 1.041 2.326 2.326 2.326h142.818c1.284 0 2.326-1.041 2.326-2.326v-49.685c0-15.825-12.828-28.653-28.653-28.653z" fill="#407093" data-original="#407093"></path><path d="m152.265 7.5c-23.488 0-41.349 19.796-39.631 43.12l2.672 36.289c1.426 19.358 25.291 32.774 36.958 32.774s35.533-13.415 36.958-32.774l2.704-36.718c1.7-23.053-16.546-42.691-39.661-42.691z" fill="#ecbe6b" data-original="#ecbe6b"></path><path d="m197.347 129.215h-16.251c-4.737 0-8.578-3.84-8.578-8.578v-8.593c-7.1 4.857-14.941 7.638-20.253 7.638s-13.153-2.781-20.253-7.638v8.593c0 4.737-3.84 8.578-8.578 8.578h-16.251c-15.824 0-28.653 12.828-28.653 28.653v49.685c0 1.284 1.041 2.326 2.326 2.326h142.818c1.284 0 2.326-1.041 2.326-2.326v-49.685c0-15.825-12.828-28.653-28.653-28.653z" fill="#eab14d" data-original="#eab14d"></path><path d="m126.316 423.837h-16.251c-4.737 0-8.578-3.84-8.578-8.578v-8.593c-7.1 4.857-14.941 7.638-20.253 7.638s-13.153-2.781-20.253-7.638v8.593c0 4.737-3.84 8.578-8.578 8.578h-16.25c-15.824 0-28.653 12.828-28.653 28.653v49.685c0 1.284 1.041 2.326 2.326 2.326h142.818c1.284 0 2.326-1.041 2.326-2.326v-49.685c-.001-15.825-12.829-28.653-28.654-28.653z" fill="#407093" data-original="#407093"></path><path d="m86.739 112.579 1.646 1.339c10.627 8.648 23.575 13.863 37.135 15.041 3.729-.932 6.492-4.304 6.492-8.322v-8.593c-8.494-5.81-15.928-14.591-16.705-25.135l-1.717-23.318c0 16.384-7.342 31.905-20.007 42.298l-6.846 5.617c-.338.278-.337.797.002 1.073z" fill="#e7a52e" data-original="#e7a52e"></path><path d="m217.792 112.579-1.646 1.339c-10.627 8.648-23.575 13.863-37.135 15.041-3.729-.932-6.492-4.304-6.492-8.322v-8.593c8.494-5.81 15.928-14.591 16.705-25.135l1.717-23.318c0 16.384 7.342 31.905 20.007 42.298l6.846 5.617c.338.278.337.797-.002 1.073z" fill="#e7a52e" data-original="#e7a52e"></path><path d="m430.766 302.122c-23.488 0-41.349 19.796-39.631 43.12l2.672 36.289c1.426 19.358 25.291 32.774 36.958 32.774s35.533-13.415 36.958-32.774l2.704-36.718c1.699-23.053-16.547-42.691-39.661-42.691z" fill="#ecbe6b" data-original="#ecbe6b"></path><path d="m475.847 423.837h-16.251c-4.737 0-8.578-3.84-8.578-8.578v-8.593c-7.1 4.857-14.941 7.638-20.253 7.638s-13.153-2.781-20.253-7.638v8.593c0 4.737-3.84 8.578-8.578 8.578h-16.251c-15.824 0-28.653 12.828-28.653 28.653v49.685c0 1.284 1.041 2.326 2.326 2.326h142.818c1.284 0 2.326-1.041 2.326-2.326v-49.685c0-15.825-12.828-28.653-28.653-28.653z" fill="#eab14d" data-original="#eab14d"></path><path d="m301.082 423.837h-4.803c2.204 4.059 3.456 8.709 3.456 13.653v22.894c0 16.081-13.036 29.117-29.117 29.117h-88.352v12.674c0 1.284 1.041 2.326 2.326 2.326h142.818c1.284 0 2.326-1.041 2.326-2.326v-49.685c-.002-15.825-12.83-28.653-28.654-28.653z" fill="#365e7d" data-original="#365e7d"></path><path d="m404.816 129.215h-4.803c2.204 4.059 3.456 8.709 3.456 13.653v22.894c0 16.081-13.036 29.117-29.117 29.117h-88.352v12.674c0 1.284 1.041 2.326 2.326 2.326h142.818c1.284 0 2.326-1.041 2.326-2.326v-49.685c-.001-15.825-12.829-28.653-28.654-28.653z" fill="#365e7d" data-original="#365e7d"></path><path d="m197.347 129.215h-4.803c2.204 4.059 3.456 8.709 3.456 13.653v22.894c0 16.081-13.036 29.117-29.117 29.117h-88.352v12.674c0 1.284 1.041 2.326 2.326 2.326h142.818c1.284 0 2.326-1.041 2.326-2.326v-49.685c-.001-15.825-12.829-28.653-28.654-28.653z" fill="#e7a52e" data-original="#e7a52e"></path><path d="m126.316 423.837h-4.803c2.204 4.059 3.456 8.709 3.456 13.653v22.894c0 16.081-13.036 29.117-29.117 29.117h-88.352v12.674c0 1.284 1.041 2.326 2.326 2.326h142.818c1.284 0 2.326-1.041 2.326-2.326v-49.685c-.001-15.825-12.829-28.653-28.654-28.653z" fill="#365e7d" data-original="#365e7d"></path><path d="m475.847 423.837h-4.803c2.204 4.059 3.456 8.709 3.456 13.653v22.894c0 16.081-13.036 29.117-29.117 29.117h-88.352v12.674c0 1.284 1.041 2.326 2.326 2.326h142.818c1.284 0 2.326-1.041 2.326-2.326v-49.685c-.001-15.825-12.829-28.653-28.654-28.653z" fill="#e7a52e" data-original="#e7a52e"></path><path d="m365.239 407.201 1.646 1.339c10.627 8.648 23.575 13.863 37.135 15.041 3.729-.932 6.492-4.304 6.492-8.322v-8.593c-8.494-5.81-15.928-14.591-16.705-25.135l-1.717-23.318c0 16.384-7.342 31.905-20.007 42.298l-6.846 5.617c-.338.278-.337.796.002 1.073z" fill="#e7a52e" data-original="#e7a52e"></path><path d="m496.292 407.201-1.646 1.339c-10.627 8.648-23.575 13.863-37.135 15.041-3.729-.932-6.492-4.304-6.492-8.322v-8.593c8.494-5.81 15.928-14.591 16.705-25.135l1.717-23.318c0 16.384 7.342 31.905 20.007 42.298l6.846 5.617c.338.278.337.796-.002 1.073z" fill="#e7a52e" data-original="#e7a52e"></path><path d="m255.355 358.213v11.381c-3.834.333-6.842 3.551-6.842 7.472 0 4.142 3.358 7.5 7.5 7.5 7.909 0 14.342-6.434 14.342-14.342v-12.01c0-4.142-3.357-7.5-7.5-7.5s-7.5 3.357-7.5 7.499z" fill="#000000" data-original="#000000" class=""></path><path d="m359.748 89.944c7.908 0 14.342-6.434 14.342-14.343v-12.01c0-4.142-3.357-7.5-7.5-7.5s-7.5 3.358-7.5 7.5v11.381c-3.834.333-6.842 3.551-6.842 7.472 0 4.142 3.357 7.5 7.5 7.5z" fill="#000000" data-original="#000000" class=""></path><path d="m159.121 59.157c-4.142 0-7.5 3.358-7.5 7.5v8.315c-3.834.333-6.842 3.551-6.842 7.472 0 4.142 3.358 7.5 7.5 7.5 7.908 0 14.342-6.434 14.342-14.343v-8.944c0-4.142-3.358-7.5-7.5-7.5z" fill="#000000" data-original="#000000" class=""></path><path d="m80.59 369.594c-3.834.333-6.842 3.551-6.842 7.472 0 4.142 3.358 7.5 7.5 7.5 7.908 0 14.342-6.434 14.342-14.342v-12.01c0-4.142-3.358-7.5-7.5-7.5s-7.5 3.358-7.5 7.5z" fill="#000000" data-original="#000000" class=""></path><path d="m169.356 33.005c-2.769-3.08-7.511-3.333-10.592-.563-5.953 5.351-13.632 8.556-21.623 9.023-4.135.242-7.291 3.79-7.049 7.925.244 4.167 3.825 7.291 7.925 7.049 11.373-.666 22.303-5.226 30.775-12.842 3.081-2.769 3.333-7.512.564-10.592z" fill="#000000" data-original="#000000" class=""></path><path d="m491.567 419.936c5.189-3.232 8.396-6.095 9.465-6.923 4.002-3.263 4.031-9.384.02-12.682l-6.846-5.617c-10.906-8.95-17.189-22.15-17.264-36.248l.965-13.102c.962-13.06-3.598-26.052-12.511-35.646-7.078-7.619-16.495-12.656-26.631-14.408v-28.308c0-4.142-3.357-7.5-7.5-7.5h-167.765v-76.339h15v24.39c0 5.418 4.407 9.826 9.825 9.826h73.265c4.143 0 7.5-3.358 7.5-7.5s-3.357-7.5-7.5-7.5h-42.053v-32.368c0-4.142-3.357-7.5-7.5-7.5s-7.5 3.358-7.5 7.5v32.368h-11.037v-44.511c0-11.664 9.489-21.152 21.152-21.152h16.251c7.638 0 14.049-5.354 15.677-12.506 4.859 1.944 9.477 2.973 13.154 2.973s8.295-1.029 13.154-2.973c1.628 7.152 8.039 12.506 15.677 12.506h16.251c11.663 0 21.152 9.489 21.152 21.152v44.511h-11.037v-32.368c0-4.142-3.357-7.5-7.5-7.5s-7.5 3.358-7.5 7.5v32.368h-3.342c-4.143 0-7.5 3.358-7.5 7.5s3.357 7.5 7.5 7.5h34.554c5.418 0 9.825-4.408 9.825-9.826v-49.685c0-19.935-16.218-36.152-36.152-36.152h-16.251c-.594 0-1.077-.483-1.077-1.078v-4.886c8.716-6.866 15.819-16.549 16.684-28.292l2.704-36.718c.962-13.06-3.598-26.052-12.511-35.646s-21.535-15.096-34.631-15.096c-13.307 0-25.573 5.315-34.54 14.968-8.972 9.657-13.554 22.853-12.57 36.203l2.673 36.289c.865 11.743 7.968 21.426 16.684 28.292v4.886c0 .594-.483 1.078-1.077 1.078h-16.251c-19.935 0-36.152 16.218-36.152 36.152v10.295h-45v-10.295c0-14.304-8.351-26.695-20.433-32.553 5.193-3.234 8.403-6.1 9.452-6.913 4.025-3.268 4.039-9.403.033-12.692l-6.845-5.617c-10.904-8.947-17.186-22.142-17.264-36.235l.966-13.115c.961-13.06-3.599-26.052-12.512-35.646s-21.537-15.097-34.632-15.097c-13.306 0-25.573 5.315-34.54 14.968-8.972 9.657-13.554 22.853-12.571 36.203l.934 12.685c-.078 14.094-6.36 27.289-17.264 36.236l-6.847 5.619c-4.011 3.293-3.981 9.427.027 12.685 1.046.811 4.261 3.681 9.459 6.919-12.082 5.858-20.433 18.248-20.433 32.553v3.05c0 4.142 3.358 7.5 7.5 7.5s7.5-3.358 7.5-7.5v-3.05c0-11.664 9.489-21.152 21.152-21.152h16.25c7.605 0 14.042-5.321 15.678-12.506 4.859 1.944 9.477 2.973 13.154 2.973s8.294-1.029 13.154-2.973c1.593 6.996 7.865 12.506 15.677 12.506h16.25c11.664 0 21.153 9.489 21.153 21.152v44.511h-11.037v-32.368c0-4.142-3.358-7.5-7.5-7.5s-7.5 3.358-7.5 7.5v32.368h-80.395v-32.368c0-4.142-3.358-7.5-7.5-7.5s-7.5 3.358-7.5 7.5v32.368h-11.036v-6.461c0-4.142-3.358-7.5-7.5-7.5s-7.5 3.358-7.5 7.5v11.635c0 5.418 4.408 9.826 9.826 9.826h142.817c5.418 0 9.826-4.408 9.826-9.826v-24.39h15v76.339h-167.766c-4.142 0-7.5 3.358-7.5 7.5v28.277c-10.177 1.695-19.403 6.63-26.54 14.311-8.972 9.657-13.554 22.853-12.571 36.203l2.672 36.289c.865 11.743 7.969 21.427 16.685 28.293v4.885c0 .594-.483 1.078-1.078 1.078h-16.25c-19.934-.002-36.152 16.217-36.152 36.151v49.685c0 5.418 4.408 9.826 9.826 9.826h142.817c5.418 0 9.826-4.408 9.826-9.826v-49.685c0-19.935-16.218-36.153-36.152-36.153h-16.251c-.594 0-1.078-.483-1.078-1.078v-4.885c8.716-6.866 15.82-16.55 16.685-28.293l2.704-36.718c.961-13.06-3.599-26.052-12.512-35.646-7.31-7.868-17.116-12.983-27.631-14.569v-20.647h160.266v20.697c-10.375 1.615-19.787 6.584-27.04 14.391-8.972 9.657-13.554 22.853-12.571 36.203l2.672 36.289c.865 11.743 7.969 21.427 16.685 28.293v4.885c0 .594-.484 1.078-1.078 1.078h-16.25c-19.935 0-36.152 16.218-36.152 36.153v7.077c0 4.142 3.358 7.5 7.5 7.5s7.5-3.358 7.5-7.5v-7.077c0-11.664 9.489-21.153 21.152-21.153h16.25c7.638 0 14.049-5.354 15.678-12.505 4.859 1.944 9.477 2.973 13.154 2.973s8.294-1.029 13.153-2.973c1.629 7.152 8.04 12.505 15.678 12.505h16.251c11.663 0 21.152 9.489 21.152 21.153v44.511h-11.037v-32.368c0-4.142-3.357-7.5-7.5-7.5s-7.5 3.358-7.5 7.5v32.368h-80.395v-32.368c0-4.142-3.358-7.5-7.5-7.5s-7.5 3.358-7.5 7.5v32.368h-11.037v-2.434c0-4.142-3.358-7.5-7.5-7.5s-7.5 3.358-7.5 7.5v7.608c0 5.418 4.408 9.826 9.826 9.826h142.818c5.418 0 9.825-4.408 9.825-9.826v-49.685c0-19.935-16.218-36.153-36.152-36.153h-16.251c-.595 0-1.078-.483-1.078-1.078v-4.884c8.716-6.866 15.82-16.55 16.685-28.293l2.704-36.718c.962-13.06-3.598-26.052-12.511-35.646-7.194-7.744-16.805-12.821-27.131-14.492v-20.725h160.266v20.622c-10.573 1.531-20.171 6.534-27.54 14.466-8.972 9.657-13.554 22.853-12.57 36.203l.934 12.676c-.075 14.097-6.358 27.295-17.264 36.245l-6.843 5.615c-4.002 3.28-4 9.409.023 12.689 1.062.823 4.264 3.683 9.458 6.918-12.082 5.858-20.433 18.249-20.433 32.553v49.685c0 5.418 4.407 9.826 9.825 9.826h142.818c5.418 0 9.825-4.408 9.825-9.826v-49.685c.001-14.302-8.35-26.693-20.432-32.551zm-163.984-369.867c-.688-9.342 2.366-18.182 8.601-24.892 6.096-6.563 14.461-10.177 23.55-10.177 9.071 0 17.468 3.66 23.642 10.306s9.207 15.288 8.541 24.334l-2.704 36.718c-.978 13.287-19.412 25.824-29.479 25.824-9.653 0-28.472-12.149-29.479-25.824zm-203.071 70.568c0 .247-.084.475-.225.657-9.368-1.105-18.26-4.344-26.098-9.483 4.816-3.946 8.906-8.411 12.334-13.501 2.996 6.934 8.128 12.825 13.989 17.442zm-1.725-34.279-2.672-36.289c-.688-9.342 2.366-18.182 8.6-24.892 6.097-6.563 14.461-10.177 23.551-10.177 9.071 0 17.467 3.66 23.641 10.306s9.208 15.288 8.541 24.334l-.985 13.372v.006l-1.719 23.34c-.982 13.331-19.458 25.824-29.478 25.824-9.676 0-28.474-12.172-29.479-25.824zm71.22 11.953c3.345 4.965 7.431 9.477 12.184 13.377l.151.124c-7.838 5.14-16.73 8.378-26.098 9.483-.141-.182-.225-.41-.225-.657v-4.885c5.861-4.618 10.992-10.508 13.988-17.442zm-83.942 333.025h16.251c11.664 0 21.152 9.489 21.152 21.153v44.511h-11.037v-32.368c0-4.142-3.358-7.5-7.5-7.5s-7.5 3.358-7.5 7.5v32.368h-80.394v-32.368c0-4.142-3.358-7.5-7.5-7.5s-7.5 3.358-7.5 7.5v32.368h-11.037v-44.511c0-11.664 9.489-21.153 21.152-21.153h16.251c7.638 0 14.049-5.354 15.677-12.505 4.859 1.944 9.477 2.973 13.154 2.973s8.294-1.029 13.154-2.973c1.629 7.152 8.04 12.505 15.677 12.505zm-5.19-111.409c6.174 6.646 9.208 15.288 8.541 24.334l-2.704 36.718c-.98 13.32-19.449 25.825-29.478 25.825-9.668 0-28.473-12.165-29.479-25.825l-2.672-36.289c-.688-9.342 2.366-18.182 8.6-24.892 6.097-6.563 14.461-10.177 23.551-10.177 9.071.001 17.467 3.66 23.641 10.306zm174.767 0c6.174 6.646 9.207 15.288 8.541 24.334l-2.704 36.718c-.98 13.307-19.438 25.825-29.479 25.825-9.667 0-28.473-12.165-29.479-25.825l-2.672-36.289c-.688-9.342 2.366-18.182 8.6-24.892 5.919-6.371 14.189-10.174 23.551-10.174 9.181.001 17.537 3.732 23.642 10.303zm205.2 86.506c-7.839 5.14-16.731 8.379-26.098 9.483-.141-.182-.225-.41-.225-.658v-4.884c5.861-4.617 10.993-10.508 13.989-17.443 3.423 5.083 7.511 9.551 12.334 13.502zm-77.627-86.634c6.098-6.563 14.461-10.177 23.551-10.177 9.071 0 17.468 3.66 23.642 10.306s9.207 15.288 8.541 24.334l-.985 13.372v.006l-1.719 23.34c-.98 13.307-19.438 25.825-29.479 25.825-9.738 0-28.477-12.228-29.479-25.825-.473-6.416-2.147-29.15-2.673-36.289-.687-9.342 2.366-18.182 8.601-24.892zm-30.374 86.51c4.752-3.9 8.839-8.412 12.183-13.377 2.996 6.934 8.127 12.825 13.988 17.442v4.885c0 .247-.084.475-.225.658-9.368-1.105-18.259-4.343-26.098-9.483zm120.159 90.691h-11.037v-32.368c0-4.142-3.357-7.5-7.5-7.5s-7.5 3.358-7.5 7.5v32.368h-80.395v-32.368c0-4.142-3.357-7.5-7.5-7.5s-7.5 3.358-7.5 7.5v32.368h-11.037v-44.511c0-11.664 9.489-21.153 21.152-21.153h16.251c7.787 0 14.079-5.491 15.677-12.505 4.859 1.944 9.477 2.973 13.154 2.973s8.294-1.029 13.153-2.973c1.645 7.22 8.11 12.505 15.678 12.505h16.251c11.663 0 21.152 9.489 21.152 21.153v44.511z" fill="#000000" data-original="#000000" class=""></path><path d="m437.621 353.779c-4.143 0-7.5 3.358-7.5 7.5v8.315c-3.834.333-6.842 3.551-6.842 7.472 0 4.142 3.357 7.5 7.5 7.5 7.908 0 14.342-6.434 14.342-14.342v-8.944c0-4.143-3.357-7.501-7.5-7.501z" fill="#000000" data-original="#000000" class=""></path><path d="m416.518 351.061c11.372-.666 22.302-5.226 30.775-12.842 3.08-2.769 3.333-7.511.564-10.592-2.769-3.08-7.51-3.334-10.592-.564-5.954 5.352-13.633 8.556-21.624 9.023-4.135.242-7.291 3.79-7.049 7.925.245 4.169 3.828 7.293 7.926 7.05z" fill="#000000" data-original="#000000" class=""></path></g></g></svg>